<svg xmlns="http://www.w3.org/2000/svg" xmlns:xlink="http://www.w3.org/1999/xlink" width="500" zoomAndPan="magnify" viewBox="0 0 375 374.999991" height="500" preserveAspectRatio="xMidYMid meet" version="1.0"><defs><g/></defs><rect x="-37.5" width="450" fill="#ffffff" y="-37.499999" height="449.999989" fill-opacity="1"/><rect x="-37.5" width="450" fill="#8134af" y="-37.499999" height="449.999989" fill-opacity="1"/><g fill="#ffffff" fill-opacity="1"><g transform="translate(65.264888, 210.564229)"><g><path d="M 6.53125 0 L 6.53125 -55.8125 L 25.78125 -55.8125 L 25.78125 -49.9375 L 26 -49.9375 C 31.007812 -54.9375 36.34375 -57.4375 42 -57.4375 C 44.75 -57.4375 47.484375 -57.070312 50.203125 -56.34375 C 52.929688 -55.625 55.546875 -54.503906 58.046875 -52.984375 C 60.546875 -51.460938 62.570312 -49.304688 64.125 -46.515625 C 65.6875 -43.722656 66.46875 -40.472656 66.46875 -36.765625 L 66.46875 0 L 47.21875 0 L 47.21875 -31.546875 C 47.21875 -34.453125 46.289062 -36.992188 44.4375 -39.171875 C 42.59375 -41.347656 40.179688 -42.4375 37.203125 -42.4375 C 34.304688 -42.4375 31.675781 -41.3125 29.3125 -39.0625 C 26.957031 -36.8125 25.78125 -34.304688 25.78125 -31.546875 L 25.78125 0 Z M 6.53125 0 "/></g></g></g><g fill="#ffffff" fill-opacity="1"><g transform="translate(128.692585, 210.564229)"><g><path d="M 10.328125 -6.90625 C 5.109375 -12.601562 2.5 -19.582031 2.5 -27.84375 C 2.5 -36.113281 5.109375 -43.113281 10.328125 -48.84375 C 15.554688 -54.570312 22.195312 -57.4375 30.25 -57.4375 C 37.644531 -57.4375 43.734375 -55.117188 48.515625 -50.484375 L 48.515625 -55.8125 L 67.78125 -55.8125 L 67.78125 0 L 48.734375 0 L 48.734375 -6.3125 L 48.515625 -6.3125 C 43.734375 -1.019531 37.644531 1.625 30.25 1.625 C 22.195312 1.625 15.554688 -1.21875 10.328125 -6.90625 Z M 26.703125 -37.3125 C 24.203125 -34.851562 22.953125 -31.695312 22.953125 -27.84375 C 22.953125 -24 24.148438 -20.863281 26.546875 -18.4375 C 28.941406 -16.007812 32.097656 -14.796875 36.015625 -14.796875 C 39.785156 -14.796875 42.882812 -16.023438 45.3125 -18.484375 C 47.738281 -20.953125 48.953125 -24.078125 48.953125 -27.859375 C 48.953125 -31.703125 47.703125 -34.851562 45.203125 -37.3125 C 42.703125 -39.78125 39.640625 -41.015625 36.015625 -41.015625 C 32.316406 -41.015625 29.210938 -39.78125 26.703125 -37.3125 Z M 26.703125 -37.3125 "/></g></g></g><g fill="#ffffff" fill-opacity="1"><g transform="translate(194.513812, 210.564229)"><g><path d="M 70.28125 -55.8125 L 43.734375 -29.15625 L 72.890625 0 L 48.09375 0 L 25.78125 -22.296875 L 25.78125 0 L 6.53125 0 L 6.53125 -93.5625 L 25.78125 -93.5625 L 25.78125 -36.34375 L 45.265625 -55.8125 Z M 70.28125 -55.8125 "/></g></g></g><g fill="#ffffff" fill-opacity="1"><g transform="translate(256.309557, 210.564229)"><g><path d="M 8.375 -86.921875 C 10.625 -89.171875 13.304688 -90.296875 16.421875 -90.296875 C 19.546875 -90.296875 22.234375 -89.171875 24.484375 -86.921875 C 26.734375 -84.679688 27.859375 -82 27.859375 -78.875 C 27.859375 -75.757812 26.734375 -73.078125 24.484375 -70.828125 C 22.234375 -68.578125 19.546875 -67.453125 16.421875 -67.453125 C 13.304688 -67.453125 10.625 -68.578125 8.375 -70.828125 C 6.125 -73.078125 5 -75.757812 5 -78.875 C 5 -82 6.125 -84.679688 8.375 -86.921875 Z M 6.53125 -55.8125 L 6.53125 0 L 25.78125 0 L 25.78125 -55.8125 Z M 6.53125 -55.8125 "/></g></g></g><g fill="#ffffff" fill-opacity="1"><g transform="translate(280.679189, 210.564229)"><g><path d="M 18.9375 -23.28125 C 22.414062 -23.28125 25.367188 -22.066406 27.796875 -19.640625 C 30.222656 -17.210938 31.4375 -14.253906 31.4375 -10.765625 C 31.4375 -7.359375 30.222656 -4.441406 27.796875 -2.015625 C 25.367188 0.410156 22.414062 1.625 18.9375 1.625 C 15.519531 1.625 12.597656 0.410156 10.171875 -2.015625 C 7.742188 -4.441406 6.53125 -7.359375 6.53125 -10.765625 C 6.53125 -14.253906 7.742188 -17.210938 10.171875 -19.640625 C 12.597656 -22.066406 15.519531 -23.28125 18.9375 -23.28125 Z M 18.9375 -23.28125 "/></g></g></g><g fill="#ffffff" fill-opacity="1"><g transform="translate(156.459897, 231.320742)"><g><path d="M 0.125 -8.046875 L 1.984375 -8.046875 L 3.53125 -3.328125 L 5.40625 -8.046875 L 6.328125 -8.046875 L 8.203125 -3.328125 L 9.75 -8.046875 L 11.59375 -8.046875 L 8.796875 0.140625 L 7.875 0.140625 L 5.859375 -5.015625 L 3.859375 0.140625 L 2.921875 0.140625 Z M 0.125 -8.046875 "/></g></g></g><g fill="#ffffff" fill-opacity="1"><g transform="translate(171.772052, 231.320742)"><g><path d="M 3.28125 -8.1875 L 4.40625 -8.1875 L 7.578125 0 L 5.71875 0 L 5.234375 -1.359375 L 2.453125 -1.359375 L 1.984375 0 L 0.125 0 Z M 4.6875 -2.875 L 3.859375 -5.234375 L 3 -2.875 Z M 4.6875 -2.875 "/></g></g></g><g fill="#ffffff" fill-opacity="1"><g transform="translate(183.064207, 231.320742)"><g><path d="M 0.90625 -8.046875 L 2.65625 -8.046875 L 2.65625 -1.640625 L 5.4375 -1.640625 L 5.4375 0 L 0.90625 0 Z M 0.90625 -8.046875 "/></g></g></g><g fill="#ffffff" fill-opacity="1"><g transform="translate(192.460352, 231.320742)"><g><path d="M 0.90625 -8.046875 L 2.65625 -8.046875 L 2.65625 -1.640625 L 5.4375 -1.640625 L 5.4375 0 L 0.90625 0 Z M 0.90625 -8.046875 "/></g></g></g><g fill="#ffffff" fill-opacity="1"><g transform="translate(201.856495, 231.320742)"><g><path d="M 0.90625 -8.046875 L 5.5 -8.046875 L 5.5 -6.390625 L 2.65625 -6.390625 L 2.65625 -4.921875 L 4.734375 -4.921875 L 4.734375 -3.28125 L 2.65625 -3.28125 L 2.65625 -1.640625 L 5.5625 -1.640625 L 5.5625 0 L 0.90625 0 Z M 0.90625 -8.046875 "/></g></g></g><g fill="#ffffff" fill-opacity="1"><g transform="translate(211.612645, 231.320742)"><g><path d="M 2.578125 -6.390625 L 0.234375 -6.390625 L 0.234375 -8.046875 L 6.671875 -8.046875 L 6.671875 -6.390625 L 4.328125 -6.390625 L 4.328125 0 L 2.578125 0 Z M 2.578125 -6.390625 "/></g></g></g></svg>